<?xml version="1.0" encoding="utf-8"?>
<!-- Svg Vector Icons : http://www.onlinewebfonts.com/icon -->
<!DOCTYPE svg PUBLIC "-//W3C//DTD SVG 1.1//EN" "http://www.w3.org/Graphics/SVG/1.1/DTD/svg11.dtd">
<svg version="1.1" xmlns="http://www.w3.org/2000/svg" xmlns:xlink="http://www.w3.org/1999/xlink" x="0px" y="0px" viewBox="0 0 1000 1000" enable-background="new 0 0 1000 1000" xml:space="preserve">
<metadata> Svg Vector Icons : http://www.onlinewebfonts.com/icon </metadata>
<g><path d="M838.9,990H145.8c-0.7,0-1.3,0-2-0.1c-24.1-1.4-69.7-22.9-69.7-94.1V90.4c-1.1-10.3-2-38.3,16.1-59.3c8.3-9.6,23.5-21.1,48.8-21.1H623c8.9,0,17.5,3.6,23.7,9.9l269.9,272.2c6.2,6.3,9.7,14.7,9.7,23.5v586.9c0,3.6-0.5,22.4-10.3,41.9C901.4,973.8,874,990,838.9,990z M149.2,923.1h689.7c12.5,0,15.2-4.7,16.8-7.5c2.8-5,3.6-11.2,3.7-13.4V329.4L609.1,76.9H140.8c-0.3,2.1-0.4,4.7-0.1,6.8c0.3,1.8,0.3,2.9,0.3,4.8v807.4c0,19.3,5.3,25.1,6.9,26.5C148.4,922.7,148.8,922.9,149.2,923.1z M144.5,923.1c0.4,0,0.9,0,1.3,0h1.2C146.2,923.1,145.3,923.1,144.5,923.1z"/><path d="M701.7,339c-33.8,0-60.6-9.7-79.7-28.8c-26.3-26.3-27-59.8-27-63.5v-208c0-9,5.4-17.2,13.8-20.6c8.3-3.4,17.9-1.5,24.3,4.9l275.6,277c6.3,6.4,8.2,15.9,4.8,24.2c-3.4,8.3-11.5,13.7-20.5,13.8c-70.7,0.3-177.3,0.8-189.4,1C703,339,702.4,339,701.7,339z M639.6,246.6c0,0.8,0.6,13.3,8.1,24.9c9.7,15,27.5,22.7,52.9,22.9c0.2,0,0.5,0,0.7,0c0.4,0,1.1,0,1.9,0c1.4,0,3.6-0.1,6.2-0.1c5.3-0.1,12.8-0.1,21.8-0.2c17.9-0.1,41.9-0.3,65.8-0.4c14.6-0.1,29.1-0.1,42.4-0.2L639.6,92.7V246.6z"/><path d="M677.1,459.9H296.1c-10.5,0-19-10-19-22.3c0-12.3,8.5-22.3,19-22.3h381.1c10.5,0,19,10,19,22.3C696.2,449.9,687.6,459.9,677.1,459.9z"/><path d="M677.1,620.8h-381c-10.5,0-19-10-19-22.3c0-12.3,8.5-22.3,19-22.3h381c10.5,0,19,10,19,22.3C696.1,610.8,687.6,620.8,677.1,620.8z"/><path d="M677.1,781.9h-381c-10.5,0-19-10-19-22.3c0-12.3,8.5-22.3,19-22.3h381c10.5,0,19,10,19,22.3C696.1,771.9,687.6,781.9,677.1,781.9z"/></g>
</svg>