<?xml version="1.0" encoding="utf-8"?>
<!DOCTYPE svg PUBLIC "-//W3C//DTD SVG 1.1//EN" "http://www.w3.org/Graphics/SVG/1.1/DTD/svg11.dtd">
<svg version="1.1" xmlns="http://www.w3.org/2000/svg" xmlns:xlink="http://www.w3.org/1999/xlink" x="0px" y="0px" viewBox="0 0 1000 1000" enable-background="new 0 0 1000 1000" xml:space="preserve" fill="#008cd2">
<g><path d="M836.9,990c16.9,0,30.6-13.7,30.6-30.6V206c0-0.7-0.3-1.3-0.4-1.9c-0.2-2.8-0.7-5.4-1.6-8c-0.4-1-0.6-2-1.1-3c-1.4-2.9-3.2-5.7-5.5-8.1c-0.2-0.2-0.3-0.5-0.5-0.6c0,0-0.1-0.1-0.1-0.2L689.9,18.8c-2.5-2.5-5.5-4.3-8.6-5.8c-0.9-0.4-1.9-0.7-2.9-1c-2.6-0.9-5.3-1.4-8-1.6c-0.6,0-1.2-0.4-1.8-0.4H163.1c-16.9,0-30.6,13.7-30.6,30.6v918.8c0,16.9,13.7,30.6,30.6,30.6H836.9z M699.1,113.6l62.9,61.8h-62.9V113.6z M193.7,71.3h444.1V206c0,16.9,13.7,30.6,30.6,30.6h137.8v692.1H193.7V71.3z"/><path d="M719.9,505.2H295.5c-16.9,0-30.6,13.7-30.6,30.6c0,16.9,13.7,30.6,30.6,30.6h424.4c16.9,0,30.6-13.7,30.6-30.6C750.5,518.9,736.8,505.2,719.9,505.2z"/><path d="M719.9,376.6H295.5c-16.9,0-30.6,13.7-30.6,30.6s13.7,30.6,30.6,30.6h424.4c16.9,0,30.6-13.7,30.6-30.6S736.8,376.6,719.9,376.6z"/><path d="M719.9,633.8H295.5c-16.9,0-30.6,13.7-30.6,30.6c0,16.9,13.7,30.6,30.6,30.6h424.4c16.9,0,30.6-13.7,30.6-30.6C750.5,647.5,736.8,633.8,719.9,633.8z"/><path d="M719.9,762.4H295.5c-16.9,0-30.6,13.7-30.6,30.6c0,16.9,13.7,30.6,30.6,30.6h424.4c16.9,0,30.6-13.7,30.6-30.6C750.5,776.1,736.8,762.4,719.9,762.4z"/></g>
</svg>