<?xml version="1.0" encoding="utf-8"?>
<!DOCTYPE svg PUBLIC "-//W3C//DTD SVG 1.1//EN" "http://www.w3.org/Graphics/SVG/1.1/DTD/svg11.dtd">
<svg version="1.1" xmlns="http://www.w3.org/2000/svg" xmlns:xlink="http://www.w3.org/1999/xlink" x="0px" y="0px" viewBox="0 0 1000 1000" enable-background="new 0 0 1000 1000" xml:space="preserve">
<g><g transform="translate(0.000000,511.000000) scale(0.100000,-0.100000)"><path fill="#ffbd00" d="M526.7,4048.6c-137.8-45.9-243-124.4-311.9-227.7C98.1,3644.8,100,3662.1,100,2282.6v-1259h1836.8h1836.8l612.3,306.1l612.3,306.1h2451h2451l-7.7,378.8c-5.7,359.7-7.6,380.8-55.5,484.1c-63.2,135.8-166.5,239.2-302.3,302.3l-107.1,49.7l-2219.4,5.7l-2219.4,3.8l-612.3,612.3L3764,4084.9H2195.1C735.2,4083,618.5,4081.1,526.7,4048.6z"/><path fill="#ffbd00" d="M4385.8,717.5l-602.7-304.2H1940.6L100,411.3l3.8-1880.8l5.7-1878.9l61.2-126.3c74.6-151.2,195.2-267.9,346.3-338.7l109.1-51.7h4371.9H9370l126.3,61.2c151.2,74.6,267.9,195.2,338.7,346.3l51.7,109.1l5.7,2186.9l3.8,2185l-2452.9-1.9H4988.5L4385.8,717.5z"/></g></g>
</svg>