<?xml version="1.0" encoding="utf-8"?>
<!-- Svg Vector Icons : http://www.onlinewebfonts.com/icon -->
<!DOCTYPE svg PUBLIC "-//W3C//DTD SVG 1.1//EN" "http://www.w3.org/Graphics/SVG/1.1/DTD/svg11.dtd">
<svg version="1.1" xmlns="http://www.w3.org/2000/svg" xmlns:xlink="http://www.w3.org/1999/xlink" x="0px" y="0px" viewBox="0 0 1000 1000" enable-background="new 0 0 1000 1000" xml:space="preserve" fill="#008cd2">
<g><g><path fill="#008cd2" d="M826.7,173.3H500c0-60.1-48.8-108.9-108.9-108.9H173.3C83.3,64.4,10,137.7,10,227.8v544.4c0,90.1,73.3,163.3,163.3,163.3h653.3c90.1,0,163.3-73.3,163.3-163.3V336.7C990,246.6,916.7,173.3,826.7,173.3L826.7,173.3z M173.3,173.3h217.8c0,60.1,48.8,108.9,108.9,108.9h326.7c30.1,0,54.4,24.4,54.4,54.4H118.9V227.8C118.9,197.7,143.3,173.3,173.3,173.3L173.3,173.3z M826.7,826.7H173.3c-30.1,0-54.4-24.4-54.4-54.4V391.1h762.2v381.1C881.1,802.3,856.7,826.7,826.7,826.7L826.7,826.7z"/></g></g>
</svg>