<?xml version="1.0" encoding="utf-8"?>
<!-- Svg Vector Icons : http://www.onlinewebfonts.com/icon -->
<!DOCTYPE svg PUBLIC "-//W3C//DTD SVG 1.1//EN" "http://www.w3.org/Graphics/SVG/1.1/DTD/svg11.dtd">
<svg version="1.1" xmlns="http://www.w3.org/2000/svg" xmlns:xlink="http://www.w3.org/1999/xlink" x="0px" y="0px" viewBox="0 0 1000 1000" enable-background="new 0 0 1000 1000" xml:space="preserve">
<g><g transform="matrix(1 0 0 -1 0 960)"><path   fill="#008cd2" d="M745,455.1v245H612.7l173.1,173.1L959,700.1H826.7V536.8h81.7l81.7-81.7H745z M10,250.9v367.5h81.7c0,19.6,1.9,35.3,5.7,47c3.8,11.7,10.2,19.9,19.2,24.5c9,4.6,17,7.5,24.1,8.6c7.1,1.1,18,1.6,32.7,1.6h163.3c14.7,0,25.6-0.5,32.7-1.6c7.1-1.1,15.1-3.9,24.1-8.6c9-4.6,15.4-12.8,19.2-24.5c3.8-11.7,5.7-27.4,5.7-47h245v-81.7h-490L10,250.9z M10,46.8l245,408.3h408.3v-81.7h196l-196-326.7H10z"/></g></g>
</svg>