<?xml version="1.0" encoding="utf-8"?>
<!DOCTYPE svg PUBLIC "-//W3C//DTD SVG 1.1//EN" "http://www.w3.org/Graphics/SVG/1.1/DTD/svg11.dtd">
<svg version="1.1" xmlns="http://www.w3.org/2000/svg" xmlns:xlink="http://www.w3.org/1999/xlink" x="0px" y="0px" viewBox="0 0 1000 1000" enable-background="new 0 0 1000 1000" xml:space="preserve">
<g><g transform="translate(0.000000,511.000000) scale(0.100000,-0.100000)"><path fill="#008cd2" d="M1922.3,4974.8C1147.4,4808.1,505.5,4254,239.7,3531C95.5,3130,100,3283.2,100,132c0-1998,9-2905.7,27-3007.1c78.8-464,301.8-892,639.7-1227.6c389.7-387.4,833.4-599.2,1383-662.2c150.9-18,1065.4-22.5,3000.3-18l2781.8,6.8l218.5,60.8c696,191.5,1234.4,635.2,1527.2,1263.6c114.9,243.3,173.4,466.3,205,756.9c15.8,162.2,20.3,1126.2,15.8,2986.8c-9,2540.8-11.3,2761.6-49.6,2917c-200.5,840.2-792.9,1470.9-1624,1727.7l-202.7,63.1l-2973.3,4.5C2501.2,5006.3,2052.9,5001.9,1922.3,4974.8z M7339.5,938.4c159.9-65.3,349.1-232,430.2-382.9c126.2-232,132.9-585.6,13.5-833.4c-69.8-144.2-243.3-310.8-398.7-382.9l-128.4-60.8h-2275h-2275L2580-658.7c-150.9,74.3-340.1,265.8-407.7,414.5c-42.8,92.3-51.8,148.7-51.8,367.1c0,241,4.5,268.1,65.3,391.9c126.2,254.5,364.9,428,642,464c69.8,9,1083.5,15.8,2254.8,13.5l2128.6-2.3L7339.5,938.4z"/></g></g>
</svg>