<?xml version="1.0" encoding="utf-8"?>
<!DOCTYPE svg PUBLIC "-//W3C//DTD SVG 1.1//EN" "http://www.w3.org/Graphics/SVG/1.1/DTD/svg11.dtd">
<svg version="1.1" xmlns="http://www.w3.org/2000/svg" xmlns:xlink="http://www.w3.org/1999/xlink" x="0px" y="0px" viewBox="0 0 1000 1000" enable-background="new 0 0 1000 1000" xml:space="preserve">
<g><g  fill="#ffbd00" transform="translate(0.000000,512.000000) scale(0.100000,-0.100000)"><path d="M4397.6,5004.6c-21.1-9.6-51.7-32.5-68.9-51.7c-57.4-65.1-3670-4902.9-3691-4943c-40.2-74.7-24.9-174.2,34.5-235.5l55.5-55.5h957.2h957.2l11.5-262.3c82.3-1721.1,597.3-2946.3,1533.5-3648.9c191.4-143.6,585.8-348.4,821.3-425c191.4-61.3,472.9-118.7,702.6-143.6c103.4-9.6,894-19.1,1862.7-19.1h1680.9l65.1,65.1c51.7,51.7,65.1,80.4,65.1,139.7c0,76.6-36.4,145.5-93.8,176.1c-19.1,11.5-155.1,28.7-304.4,38.3c-149.3,11.5-333.1,34.5-409.7,49.8c-867.2,180-1493.2,752.4-1872.3,1711.5c-216.3,543.7-352.3,1301.8-367.6,2031.2l-5.7,277.6l957.2,9.6c526.5,5.7,970.6,17.2,987.8,24.9c17.2,9.6,47.9,44,67,80.4c26.8,51.7,30.6,78.5,15.3,132.1c-23,86.2-3729.3,5015.8-3794.4,5044.5C4512.5,5025.7,4451.2,5025.7,4397.6,5004.6z"/></g></g>
</svg>